<?xml version="1.0" encoding="utf-8"?><svg xmlns="http://www.w3.org/2000/svg" xmlns:xlink="http://www.w3.org/1999/xlink"><symbol id="icon-close" viewBox="0 0 64 64"><style>.st0{fill:#231f20}</style><path class="st0" d="M32 64C14.4 64 0 49.6 0 32S14.4 0 32 0s32 14.4 32 32-14.4 32-32 32zm0-61C16 3 3 16 3 32s13 29 29 29 29-13 29-29S48 3 32 3z"/><path class="st0" d="M20.2 45.3c-.4 0-.8-.1-1.1-.4-.6-.6-.6-1.6 0-2.2l23.5-23.5c.6-.6 1.6-.6 2.2 0s.6 1.6 0 2.2L21.3 44.8c-.3.3-.7.5-1.1.5z"/><path class="st0" d="M43.8 45.3c-.4 0-.8-.1-1.1-.4L19.2 21.3c-.6-.6-.6-1.6 0-2.2.6-.6 1.6-.6 2.2 0l23.5 23.5c.6.6.6 1.6 0 2.2-.4.3-.8.5-1.1.5z"/></symbol><symbol id="icon-compose" viewBox="0 0 64 64"><style>.st0{fill:#231f20}</style><path class="st0" d="M19.9 49.1c-.1 0-.3 0-.4-.1-.4-.2-.6-.5-.6-1v-8.9h-.3C8.3 39.2 0 31.5 0 22.1S8.3 5 18.5 5H40c10.2 0 18.5 7.7 18.5 17.1 0 2.3-.5 4.5-1.4 6.6-.2.5-.9.7-1.4.5-.5-.2-.8-.9-.5-1.4.8-1.8 1.3-3.8 1.3-5.8 0-8.2-7.3-15-16.4-15H18.5c-9 0-16.4 6.8-16.4 15.1s7.4 15.1 16.5 15.1h1.3c.6 0 1 .5 1 1v7.5l9-8.3c.2-.2.4-.3.7-.3H32c.6 0 1 .5 1 1s-.5 1-1 1h-.9l-10.5 9.6c-.2.3-.5.4-.7.4z"/><path class="st0" d="M49.5 59c-8 0-14.5-6-14.5-13.4s6.5-13.4 14.5-13.4S64 38.2 64 45.6 57.5 59 49.5 59zm0-24.7c-6.8 0-12.4 5.1-12.4 11.3S42.6 57 49.5 57s12.4-5.1 12.4-11.3-5.6-11.4-12.4-11.4z"/><path class="st0" d="M49.5 52.9c-.6 0-1-.5-1-1V39.4c0-.6.5-1 1-1s1 .5 1 1v12.4c0 .6-.4 1.1-1 1.1z"/><path class="st0" d="M56.2 46.7H42.8c-.6 0-1-.5-1-1 0-.6.5-1 1-1h13.5c.6 0 1 .5 1 1s-.5 1-1.1 1z"/></symbol><symbol viewBox="0 0 64 64" id="icon-grid"><path d="M0 0h22v21H0zM43 0h21v21H43zM0 42h22v22H0zM43 42h21v22H43z"/></symbol><symbol id="icon-heart" viewBox="0 0 64 64"><style>.st0{fill:#231f20}</style><path class="st0" d="M32 64c-.5 0-.9-.1-1.3-.4C29.4 62.8 0 43.9 0 20.4 0 7.4 8.2.8 15.9.2 21.6-.2 28.3 2.6 32 9.4c3.7-7 10.6-9.8 16.5-9.4C56 .6 64 6.8 64 18.8c0 21.7-29.3 43.7-30.5 44.7-.5.3-1 .5-1.5.5zM17.1 5.1h-.9c-5.6.5-11.3 5.4-11.3 15.3 0 18 21.2 34 27 38.1 5.7-4.5 27.2-22.8 27.2-39.6 0-9-5.5-13.5-10.9-13.9-5.7-.4-12.2 3.3-13.7 12.7-.2 1.2-1.2 2.1-2.4 2.1s-2.2-.9-2.4-2.1C28.2 8.9 22.5 5.1 17.1 5.1z"/></symbol><symbol viewBox="0 0 64 64" id="icon-list"><path d="M0 0h64v7H0zM0 28h64v7H0zM0 56h64v8H0z"/></symbol><symbol viewBox="0 0 16 16" id="icon-lock"><path d="M7 9h2v2H7z"/><path d="M13 5c0-2.8-2.2-5-5-5S3 2.2 3 5H0v11h16V5h-3zM8 1c2.2 0 4 1.8 4 4H4c0-2.2 1.8-4 4-4zm7 14H1V6h14v9z"/></symbol><symbol id="icon-logo" viewBox="0 0 64 64"><style>.st0{fill:#231f20}</style><path class="st0" d="M15.9 47.9c-.2 0-.3 0-.4-.1-.4-.2-.7-.6-.7-1.1v-9.6H12c-6.7.1-12-5.2-12-11.8V14.6C0 8 5.3 2.7 11.9 2.7h26.8c6.6 0 11.9 5.3 11.9 11.9v10.7c0 6.6-5.3 11.9-11.9 11.9H27.1L16.7 47.6c-.2.2-.5.3-.8.3zM11.9 5c-5.3 0-9.6 4.3-9.6 9.5v10.7c0 5.3 4.3 9.5 9.6 9.5h4c.6 0 1.2.5 1.2 1.2v7.9l8.7-8.7c.2-.2.5-.3.8-.3h12.1c5.3 0 9.5-4.3 9.5-9.5V14.6C48.3 9.3 44 5 38.7 5H11.9zM52.1 61.3c-.3 0-.6-.1-.8-.3l-7.7-7.7h-6.2c-4.3 0-7.9-3.5-7.9-7.9 0-.6.5-1.2 1.2-1.2.6 0 1.2.5 1.2 1.2 0 3 2.5 5.5 5.5 5.5h6.7c.3 0 .6.1.8.3l6 6V52c0-.6.5-1.2 1.2-1.2h4c3 0 5.5-2.5 5.5-5.5V40c0-3-2.5-5.5-5.5-5.5-.6 0-1.2-.5-1.2-1.2 0-.6.5-1.2 1.2-1.2 4.3 0 7.9 3.5 7.9 7.9v5.4c0 4.3-3.5 7.9-7.9 7.9h-2.8v6.9c0 .5-.3.9-.7 1.1h-.5z"/></symbol><symbol id="icon-mail" viewBox="0 0 64 64"><style>.st0{fill:#231f20}</style><path class="st0" d="M57.8 7.5H6.2c-3.4 0-6.2 3-6.2 6.7v35.5c0 3.7 2.8 6.7 6.2 6.7h51.6c3.4 0 6.2-3 6.2-6.7V14.3c0-3.8-2.8-6.8-6.2-6.8zm-.2 3.8L32 34.3l-25.6-23h51.2zm2.6 38.4c0 1.6-1.1 3-2.4 3H6.2c-1.3 0-2.4-1.3-2.4-3V14.3 14l27 24.3c.4.3.8.5 1.3.5s.9-.2 1.3-.5l27-24.3V49.7z"/></symbol><symbol id="icon-photo" viewBox="0 0 64 64"><style>.st0{fill:#231f20}</style><path class="st0" d="M32 22.5c-6.3 0-11.5 5.1-11.5 11.5S25.7 45.4 32 45.4s11.5-5.1 11.5-11.5S38.3 22.5 32 22.5zm0 19.4c-4.4 0-7.9-3.6-7.9-7.9 0-4.4 3.6-7.9 7.9-7.9s7.9 3.6 7.9 7.9c0 4.3-3.5 7.9-7.9 7.9z"/><path class="st0" d="M56.9 16.1H46.3L39 9.4c-.3-.3-.8-.5-1.2-.5H26.2c-.4 0-.9.2-1.2.5l-7.2 6.7H7.1c-3.8 0-7.1 3.6-7.1 7.6V48c0 3.9 3.2 7.1 7.1 7.1h49.8c3.9 0 7.1-3.2 7.1-7.1V23.8c0-4.1-3.3-7.7-7.1-7.7zM60.4 48c0 2-1.6 3.6-3.6 3.6H7.1c-2 0-3.6-1.6-3.6-3.6V23.8c0-2.1 1.7-4.1 3.6-4.1h11.3c.1 0 .2 0 .3-.1.1 0 .3 0 .4-.1.1 0 .2-.1.3-.2.1-.1.2-.1.2-.1l7.2-6.7H37l7.2 6.7c.1.1.2.1.3.2.1.1.2.1.3.2.2.1.4.1.7.1h11.3c1.8 0 3.6 2 3.6 4.1V48z"/></symbol><symbol id="icon-reply" viewBox="0 0 64 64"><style>.st0{fill:#231f20}</style><path class="st0" d="M61.5 64c-1 0-1.9-.6-2.3-1.6-3.5-9.1-8.5-15.1-14.9-17.9-6.4-2.8-12.7-1.6-15.5-.9v14c0 1-.6 1.9-1.6 2.3-1 .4-2 .1-2.7-.7L.6 31.6c-.8-.9-.8-2.3 0-3.2L24.5.9c.7-.8 1.8-1.1 2.7-.7 1 .4 1.6 1.3 1.6 2.3v13.1c4.5-.1 13.6.6 21.5 7.2C59.4 30.5 64 43.5 64 61.5c0 1.2-.8 2.2-2 2.4-.2.1-.3.1-.5.1zM5.7 30l18.2 21v-9.2c0-1 .6-1.9 1.5-2.3.4-.2 10.3-4.1 20.8.4 4.7 2 8.8 5.4 12.1 10.1-1.5-10.6-5.2-18.5-11.2-23.6-9.1-7.7-20.3-5.9-20.4-5.9-.7.1-1.4-.1-2-.5-.6-.5-.9-1.2-.9-1.9v-9L5.7 30z"/></symbol><symbol id="icon-search" viewBox="0 0 64 64"><style>.st0{fill:#221f1f}</style><path class="st0" d="M26.6 54C11.9 54 0 42.1 0 27.4 0 12.8 11.9.9 26.6.9c14.6 0 26.6 11.9 26.6 26.6-.1 14.6-12 26.5-26.6 26.5zm0-49.1C14.1 4.9 4 15 4 27.4S14.1 50 26.6 50s22.6-10.1 22.6-22.6S39 4.9 26.6 4.9z"/><path class="st0" d="M62 63.1c-.5 0-1-.2-1.3-.5L42.6 46.3c-.8-.7-.9-2-.1-2.8.7-.8 2-.9 2.8-.1l18.1 16.3c.8.7.9 2 .1 2.8-.4.4-1 .6-1.5.6z"/></symbol><symbol id="icon-user" viewBox="0 0 64 64"><style>.st0{fill:#231f20}</style><path class="st0" d="M56.3 46.3l-14.4-4.8v-6c4.5-3.5 7.5-9.4 7.5-15.9C49.4 8.8 41.4 0 31.6 0S13.8 8.8 13.8 19.6c0 6.9 3.3 13 8.3 16.5v5.5L7.7 46.3C3.1 47.8 0 51.9 0 56.5V64h64v-7.5c0-4.6-3.1-8.7-7.7-10.2zM31.6 4c6.6 0 12.1 5.2 13.5 12.2-4.2.6-6.8-.7-9.3-4.8L34 8.5l-1.7 3c-1.4 2.4-6.2 4.6-10.2 4.6-1.4 0-2.6-.2-3.8-.6C19.9 8.9 25.2 4 31.6 4zM17.8 19.6c0-.1 0-.1 0 0 1.4.3 2.8.5 4.3.5 3.8 0 8.7-1.6 11.8-4.4 2.5 3.1 5.5 4.6 9.3 4.6.7 0 1.4-.1 2.2-.2-.3 8.3-6.3 14.9-13.8 14.9-7.6.1-13.8-6.9-13.8-15.4zM60 60H4v-3.5c0-2.8 2-5.4 4.9-6.4l17.2-5.7v-6.3c1.7.6 3.6 1 5.5 1 2.2 0 4.3-.5 6.3-1.3v6.6l17.2 5.7c2.9 1 4.9 3.5 4.9 6.4V60z"/></symbol><symbol id="icon-video" viewBox="0 0 64 64"><style>.st0{fill:#231f20}</style><path class="st0" d="M37.5 21.7H10c-1 0-1.8.8-1.8 1.8s.8 1.8 1.8 1.8h27.5c1 0 1.8-.8 1.8-1.8s-.8-1.8-1.8-1.8z"/><path class="st0" d="M62 14.9c-1-.5-2.2-.5-3.3.2l-11.2 7.3V15c0-3.4-2-6-4.5-6H4.5C2 8.9 0 11.5 0 14.9V49c0 3.4 2 6 4.5 6H43c2.5 0 4.5-2.7 4.5-6v-7.4l11.2 7.3c.6.4 1.2.6 1.9.6.5 0 1-.1 1.4-.4 1.3-.7 2-2.3 2-4.4V19.2c0-2.1-.7-3.7-2-4.3zM44 49.1c0 1.6-.7 2.5-1 2.5H4.5c-.2 0-1-.9-1-2.5V14.9c0-1.6.7-2.5 1-2.5H43c.2 0 1 .9 1 2.5v34.2zm16.4-4.3c0 .4 0 .7-.1.9l-12.8-8.3V26.6l12.8-8.3c.1.2.1.5.1.9v25.6z"/></symbol></svg>