<?xml version="1.0" encoding="utf-8"?><svg xmlns="http://www.w3.org/2000/svg" xmlns:xlink="http://www.w3.org/1999/xlink"><symbol viewBox="24 -24 64 64" id="icon-close"><path d="M56 40C38.4 40 24 25.6 24 8s14.4-32 32-32S88-9.6 88 8 73.6 40 56 40zm0-61C40-21 27-8 27 8s13 29 29 29S85 24 85 8 72-21 56-21z"/><path d="M68.9 18.6L58.2 7.9 68.8-2.6c.6-.6.6-1.6 0-2.2s-1.6-.6-2.2 0L56.1 5.7 45.4-4.9c-.6-.6-1.6-.6-2.2 0-.6.6-.6 1.6 0 2.2L53.8 8 43.1 18.7c-.6.6-.6 1.6 0 2.2.3.3.7.4 1.1.4.4 0 .8-.2 1.1-.5L56 10.1l10.7 10.8c.3.3.7.4 1.1.4.3 0 .7-.2 1.1-.5.6-.6.6-1.6 0-2.2z"/></symbol><symbol viewBox="24 -24 64 64" id="icon-compose"><path d="M43.9 25.1c-.1 0-.3 0-.4-.1-.4-.2-.6-.5-.6-1v-8.9h-.3C32.3 15.2 24 7.5 24-1.9S32.3-19 42.5-19H64c10.2 0 18.5 7.7 18.5 17.1 0 2.3-.5 4.5-1.4 6.6-.2.5-.9.7-1.4.5s-.8-.9-.5-1.4C80 2 80.5 0 80.5-2c0-8.2-7.3-15-16.4-15H42.5c-9 0-16.4 6.8-16.4 15.1s7.4 15.1 16.5 15.1h1.3c.6 0 1 .5 1 1v7.5l9-8.3c.2-.2.4-.3.7-.3H56c.6 0 1 .5 1 1s-.5 1-1 1h-.9l-10.5 9.6c-.2.3-.5.4-.7.4z"/><path d="M73.5 35c-8 0-14.5-6-14.5-13.4S65.5 8.2 73.5 8.2 88 14.2 88 21.6 81.5 35 73.5 35zm0-24.7c-6.8 0-12.4 5.1-12.4 11.3S66.6 33 73.5 33s12.4-5.1 12.4-11.3-5.6-11.4-12.4-11.4z"/><path d="M80.3 20.7h-5.8v-5.3c0-.5-.5-1-1-1s-1 .4-1 1v5.3h-5.7c-.5 0-1 .4-1 1 0 .5.4 1 1 1h5.7v5.2c0 .5.4 1 1 1s1-.5 1-1.1v-5.1h5.7c.6 0 1.1-.5 1.1-1s-.4-1-1-1z"/></symbol><symbol viewBox="0 0 64 64" id="icon-grid"><path d="M0 0h22v21H0zM43 0h21v21H43zM0 42h22v22H0zM43 42h21v22H43z"/></symbol><symbol viewBox="24 -24 64 64" id="icon-heart"><path d="M56 40c-.5 0-.9-.1-1.3-.4C53.4 38.8 24 19.9 24-3.6c0-13 8.2-19.6 15.9-20.2 5.7-.4 12.4 2.4 16.1 9.2 3.7-7 10.6-9.8 16.5-9.4C80-23.4 88-17.2 88-5.2c0 21.7-29.3 43.7-30.5 44.7-.5.3-1 .5-1.5.5zM41.1-18.9h-.9c-5.6.5-11.3 5.4-11.3 15.3 0 18 21.2 34 27 38.1C61.6 30 83.1 11.7 83.1-5.1c0-9-5.5-13.5-10.9-13.9-5.7-.4-12.2 3.3-13.7 12.7-.2 1.2-1.2 2.1-2.4 2.1s-2.2-.9-2.4-2.1c-1.5-8.8-7.2-12.6-12.6-12.6z"/></symbol><symbol viewBox="0 0 64 64" id="icon-list"><path d="M0 0h64v7H0zM0 28h64v7H0zM0 56h64v8H0z"/></symbol><symbol viewBox="0 0 16 16" id="icon-lock"><path d="M7 9h2v2H7z"/><path d="M13 5c0-2.8-2.2-5-5-5S3 2.2 3 5H0v11h16V5h-3zM8 1c2.2 0 4 1.8 4 4H4c0-2.2 1.8-4 4-4zm7 14H1V6h14v9z"/></symbol><symbol viewBox="24 -24 64 64" id="icon-logo"><path d="M39.9 23.9c-.2 0-.3 0-.4-.1-.4-.2-.7-.6-.7-1.1v-9.6H36c-6.7.1-12-5.2-12-11.8V-9.4c0-6.6 5.3-11.9 11.9-11.9h26.8c6.6 0 11.9 5.3 11.9 11.9V1.3c0 6.6-5.3 11.9-11.9 11.9H51.1L40.7 23.6c-.2.2-.5.3-.8.3zm-4-42.9c-5.3 0-9.6 4.3-9.6 9.5V1.2c0 5.3 4.3 9.5 9.6 9.5h4c.6 0 1.2.5 1.2 1.2v7.9l8.7-8.7c.2-.2.5-.3.8-.3h12.1c5.3 0 9.5-4.3 9.5-9.5V-9.4c.1-5.3-4.2-9.6-9.5-9.6H35.9zM76.1 37.3c-.3 0-.6-.1-.8-.3l-7.7-7.7h-6.2c-4.3 0-7.9-3.5-7.9-7.9 0-.6.5-1.2 1.2-1.2.6 0 1.2.5 1.2 1.2 0 3 2.5 5.5 5.5 5.5h6.7c.3 0 .6.1.8.3l6 6V28c0-.6.5-1.2 1.2-1.2h4c3 0 5.5-2.5 5.5-5.5V16c0-3-2.5-5.5-5.5-5.5-.6 0-1.2-.5-1.2-1.2 0-.6.5-1.2 1.2-1.2 4.3 0 7.9 3.5 7.9 7.9v5.4c0 4.3-3.5 7.9-7.9 7.9h-2.8v6.9c0 .5-.3.9-.7 1.1h-.5z"/></symbol><symbol viewBox="24 -24 64 64" id="icon-mail"><path d="M81.8-16.5H30.2c-3.4 0-6.2 3-6.2 6.7v35.5c0 3.7 2.8 6.7 6.2 6.7h51.6c3.4 0 6.2-3 6.2-6.7V-9.7c0-3.8-2.8-6.8-6.2-6.8zm-.2 3.8L56 10.3l-25.6-23h51.2zm2.6 38.4c0 1.6-1.1 3-2.4 3H30.2c-1.3 0-2.4-1.3-2.4-3V-9.7v-.3l27 24.3c.4.3.8.5 1.3.5s.9-.2 1.3-.5l27-24.3V25.7h-.2z"/></symbol><symbol viewBox="24 -24 64 64" id="icon-photo"><path d="M56-1.5c-6.3 0-11.5 5.1-11.5 11.5S49.7 21.4 56 21.4s11.5-5.1 11.5-11.5S62.3-1.5 56-1.5zm0 19.4c-4.4 0-7.9-3.6-7.9-7.9 0-4.4 3.6-7.9 7.9-7.9s7.9 3.6 7.9 7.9-3.5 7.9-7.9 7.9z"/><path d="M80.9-7.9H70.3L63-14.6c-.3-.3-.8-.5-1.2-.5H50.2c-.4 0-.9.2-1.2.5l-7.2 6.7H31.1C27.3-7.9 24-4.3 24-.3V24c0 3.9 3.2 7.1 7.1 7.1h49.8c3.9 0 7.1-3.2 7.1-7.1V-.2c0-4.1-3.3-7.7-7.1-7.7zM84.4 24c0 2-1.6 3.6-3.6 3.6H31.1c-2 0-3.6-1.6-3.6-3.6V-.2c0-2.1 1.7-4.1 3.6-4.1h11.3c.1 0 .2 0 .3-.1.1 0 .3 0 .4-.1.1 0 .2-.1.3-.2.1-.1.2-.1.2-.1l7.2-6.7H61l7.2 6.7c.1.1.2.1.3.2s.2.1.3.2c.2.1.4.1.7.1h11.3c1.8 0 3.6 2 3.6 4.1V24z"/></symbol><symbol viewBox="24 -24 64 64" id="icon-reply"><path d="M85.5 40c-1 0-1.9-.6-2.3-1.6-3.5-9.1-8.5-15.1-14.9-17.9-6.4-2.8-12.7-1.6-15.5-.9v14c0 1-.6 1.9-1.6 2.3-1 .4-2 .1-2.7-.7L24.6 7.6c-.8-.9-.8-2.3 0-3.2l23.9-27.5c.7-.8 1.8-1.1 2.7-.7 1 .4 1.6 1.3 1.6 2.3v13.1c4.5-.1 13.6.6 21.5 7.2C83.4 6.5 88 19.5 88 37.5c0 1.2-.8 2.2-2 2.4-.2.1-.3.1-.5.1zM29.7 6l18.2 21v-9.2c0-1 .6-1.9 1.5-2.3.4-.2 10.3-4.1 20.8.4 4.7 2 8.8 5.4 12.1 10.1-1.5-10.6-5.2-18.5-11.2-23.6C62-5.3 50.8-3.5 50.7-3.5c-.7.1-1.4-.1-2-.5-.6-.5-.9-1.2-.9-1.9v-9L29.7 6z"/></symbol><symbol viewBox="24 -24 64 64" id="icon-search"><path d="M87.4 35.7l-16.7-15c4-4.6 6.4-10.6 6.5-17.2 0-14.7-12-26.6-26.6-26.6C35.9-23.1 24-11.2 24 3.4 24 18.1 35.9 30 50.6 30c6.6 0 12.7-2.5 17.3-6.5l16.8 15.1c.3.3.8.5 1.3.5s1.1-.2 1.5-.6c.8-.8.7-2.1-.1-2.8zM28 3.4C28-9 38.1-19.1 50.6-19.1c12.4 0 22.6 10 22.6 22.5S63.1 26 50.6 26 28 15.8 28 3.4z"/></symbol><symbol viewBox="24 -24 64 64" id="icon-user"><path d="M80.3 22.3l-14.4-4.8v-6c4.5-3.5 7.5-9.4 7.5-15.9 0-10.8-8-19.6-17.8-19.6S37.8-15.2 37.8-4.4c0 6.9 3.3 13 8.3 16.5v5.5l-14.4 4.7c-4.6 1.5-7.7 5.6-7.7 10.2V40h64v-7.5c0-4.6-3.1-8.7-7.7-10.2zM55.6-20c6.6 0 12.1 5.2 13.5 12.2-4.2.6-6.8-.7-9.3-4.8L58-15.5l-1.7 3c-1.4 2.4-6.2 4.6-10.2 4.6-1.4 0-2.6-.2-3.8-.6C43.9-15.1 49.2-20 55.6-20zM41.8-4.4c0-.1 0-.1 0 0 1.4.3 2.8.5 4.3.5 3.8 0 8.7-1.6 11.8-4.4 2.5 3.1 5.5 4.6 9.3 4.6.7 0 1.4-.1 2.2-.2C69.1 4.4 63.1 11 55.6 11c-7.6.1-13.8-6.9-13.8-15.4zM84 36H28v-3.5c0-2.8 2-5.4 4.9-6.4l17.2-5.7v-6.3c1.7.6 3.6 1 5.5 1 2.2 0 4.3-.5 6.3-1.3v6.6l17.2 5.7c2.9 1 4.9 3.5 4.9 6.4V36z"/></symbol><symbol viewBox="24 -24 64 64" id="icon-video"><path d="M61.5-2.3H34c-1 0-1.8.8-1.8 1.8S33 1.3 34 1.3h27.5c1 0 1.8-.8 1.8-1.8s-.8-1.8-1.8-1.8z"/><path d="M86-9.1c-1-.5-2.2-.5-3.3.2L71.5-1.6V-9c0-3.4-2-6-4.5-6H28.5C26-15.1 24-12.5 24-9.1V25c0 3.4 2 6 4.5 6H67c2.5 0 4.5-2.7 4.5-6v-7.4l11.2 7.3c.6.4 1.2.6 1.9.6.5 0 1-.1 1.4-.4 1.3-.7 2-2.3 2-4.4V-4.8c0-2.1-.7-3.7-2-4.3zM68 25.1c0 1.6-.7 2.5-1 2.5H28.5c-.2 0-1-.9-1-2.5V-9.1c0-1.6.7-2.5 1-2.5H67c.2 0 1 .9 1 2.5v34.2zm16.4-4.3c0 .4 0 .7-.1.9l-12.8-8.3V2.6l12.8-8.3c.1.2.1.5.1.9v25.6z"/></symbol></svg>