<?xml version="1.0" encoding="utf-8"?>
<!-- Generator: Adobe Illustrator 19.0.0, SVG Export Plug-In . SVG Version: 6.00 Build 0)  -->
<svg version="1.1" id="icons" xmlns="http://www.w3.org/2000/svg" xmlns:xlink="http://www.w3.org/1999/xlink" x="0px" y="0px"
	 viewBox="0 0 64 64" style="enable-background:new 0 0 64 64;" xml:space="preserve">
<style type="text/css">
	.st0{fill:#231F20;}
</style>
<g>
	<g>
		<path class="st0" d="M32,64c-0.5,0-0.9-0.1-1.3-0.4C29.4,62.8,0,43.9,0,20.4C0,7.4,8.2,0.8,15.9,0.2C21.6-0.2,28.3,2.6,32,9.4
			c3.7-7,10.6-9.8,16.5-9.4C56,0.6,64,6.8,64,18.8c0,21.7-29.3,43.7-30.5,44.7C33,63.8,32.5,64,32,64z M17.1,5.1c-0.3,0-0.6,0-0.9,0
			C10.6,5.6,4.9,10.5,4.9,20.4c0,18,21.2,34,27,38.1c5.7-4.5,27.2-22.8,27.2-39.6c0-9-5.5-13.5-10.9-13.9
			c-5.7-0.4-12.2,3.3-13.7,12.7c-0.2,1.2-1.2,2.1-2.4,2.1c-1.2,0-2.2-0.9-2.4-2.1C28.2,8.9,22.5,5.1,17.1,5.1z"/>
	</g>
</g>
</svg>
