<?xml version="1.0" encoding="utf-8"?>
<!-- Generator: Adobe Illustrator 19.0.0, SVG Export Plug-In . SVG Version: 6.00 Build 0)  -->
<svg version="1.1" id="icons" xmlns="http://www.w3.org/2000/svg" xmlns:xlink="http://www.w3.org/1999/xlink" x="0px" y="0px"
	 viewBox="24 -24 64 64" style="enable-background:new 24 -24 64 64;" xml:space="preserve">
<g>
	<path d="M56-1.5c-6.3,0-11.5,5.1-11.5,11.5S49.7,21.4,56,21.4s11.5-5.1,11.5-11.5S62.3-1.5,56-1.5z M56,17.9
		c-4.4,0-7.9-3.6-7.9-7.9c0-4.4,3.6-7.9,7.9-7.9s7.9,3.6,7.9,7.9S60.4,17.9,56,17.9z"/>
	<path d="M80.9-7.9H70.3L63-14.6c-0.3-0.3-0.8-0.5-1.2-0.5H50.2c-0.4,0-0.9,0.2-1.2,0.5l-7.2,6.7H31.1c-3.8,0-7.1,3.6-7.1,7.6V24
		c0,3.9,3.2,7.1,7.1,7.1h49.8c3.9,0,7.1-3.2,7.1-7.1V-0.2C88-4.3,84.7-7.9,80.9-7.9z M84.4,24c0,2-1.6,3.6-3.6,3.6H31.1
		c-2,0-3.6-1.6-3.6-3.6V-0.2c0-2.1,1.7-4.1,3.6-4.1h11.3c0.1,0,0.2,0,0.3-0.1c0.1,0,0.3,0,0.4-0.1c0.1,0,0.2-0.1,0.3-0.2
		c0.1-0.1,0.2-0.1,0.2-0.1l7.2-6.7H61l7.2,6.7c0.1,0.1,0.2,0.1,0.3,0.2s0.2,0.1,0.3,0.2c0.2,0.1,0.4,0.1,0.7,0.1h11.3
		c1.8,0,3.6,2,3.6,4.1C84.4-0.2,84.4,24,84.4,24z"/>
</g>
</svg>
