<?xml version="1.0" encoding="utf-8"?>
<!-- Generator: Adobe Illustrator 19.0.0, SVG Export Plug-In . SVG Version: 6.00 Build 0)  -->
<svg version="1.1" id="icons" xmlns="http://www.w3.org/2000/svg" xmlns:xlink="http://www.w3.org/1999/xlink" x="0px" y="0px"
	 viewBox="24 -24 64 64" style="enable-background:new 24 -24 64 64;" xml:space="preserve">
<g>
	<g>
		<path d="M56,40c-0.5,0-0.9-0.1-1.3-0.4C53.4,38.8,24,19.9,24-3.6c0-13,8.2-19.6,15.9-20.2c5.7-0.4,12.4,2.4,16.1,9.2
			c3.7-7,10.6-9.8,16.5-9.4C80-23.4,88-17.2,88-5.2c0,21.7-29.3,43.7-30.5,44.7C57,39.8,56.5,40,56,40z M41.1-18.9
			c-0.3,0-0.6,0-0.9,0c-5.6,0.5-11.3,5.4-11.3,15.3c0,18,21.2,34,27,38.1C61.6,30,83.1,11.7,83.1-5.1c0-9-5.5-13.5-10.9-13.9
			C66.5-19.4,60-15.7,58.5-6.3c-0.2,1.2-1.2,2.1-2.4,2.1s-2.2-0.9-2.4-2.1C52.2-15.1,46.5-18.9,41.1-18.9z"/>
	</g>
</g>
</svg>
