<?xml version="1.0" encoding="utf-8"?>
<!-- Generator: Adobe Illustrator 19.0.0, SVG Export Plug-In . SVG Version: 6.00 Build 0)  -->
<svg version="1.1" id="icons" xmlns="http://www.w3.org/2000/svg" xmlns:xlink="http://www.w3.org/1999/xlink" x="0px" y="0px"
	 viewBox="0 0 64 64" style="enable-background:new 0 0 64 64;" xml:space="preserve">
<style type="text/css">
	.st0{fill:#231F20;}
</style>
<g>
	<g>
		<path class="st0" d="M32,64C14.4,64,0,49.6,0,32S14.4,0,32,0s32,14.4,32,32S49.6,64,32,64z M32,3C16,3,3,16,3,32s13,29,29,29
			s29-13,29-29S48,3,32,3z"/>
	</g>
	<g>
		<path class="st0" d="M20.2,45.3c-0.4,0-0.8-0.1-1.1-0.4c-0.6-0.6-0.6-1.6,0-2.2l23.5-23.5c0.6-0.6,1.6-0.6,2.2,0s0.6,1.6,0,2.2
			L21.3,44.8C21,45.1,20.6,45.3,20.2,45.3z"/>
	</g>
	<g>
		<path class="st0" d="M43.8,45.3c-0.4,0-0.8-0.1-1.1-0.4L19.2,21.3c-0.6-0.6-0.6-1.6,0-2.2c0.6-0.6,1.6-0.6,2.2,0l23.5,23.5
			c0.6,0.6,0.6,1.6,0,2.2C44.5,45.1,44.1,45.3,43.8,45.3z"/>
	</g>
</g>
</svg>
