<?xml version="1.0" encoding="utf-8"?>
<!-- Generator: Adobe Illustrator 19.0.0, SVG Export Plug-In . SVG Version: 6.00 Build 0)  -->
<svg version="1.1" id="icons" xmlns="http://www.w3.org/2000/svg" xmlns:xlink="http://www.w3.org/1999/xlink" x="0px" y="0px"
	 viewBox="0 0 64 64" style="enable-background:new 0 0 64 64;" xml:space="preserve">
<style type="text/css">
	.st0{fill:#231F20;}
</style>
<g>
	<g>
		<path class="st0" d="M19.9,49.1c-0.1,0-0.3,0-0.4-0.1c-0.4-0.2-0.6-0.5-0.6-1v-8.9h-0.3C8.3,39.2,0,31.5,0,22.1S8.3,5,18.5,5h21.5
			c10.2,0,18.5,7.7,18.5,17.1c0,2.3-0.5,4.5-1.4,6.6c-0.2,0.5-0.9,0.7-1.4,0.5c-0.5-0.2-0.8-0.9-0.5-1.4c0.8-1.8,1.3-3.8,1.3-5.8
			C56.5,13.8,49.2,7,40.1,7H18.5C9.5,7,2.1,13.8,2.1,22.1c0,8.3,7.4,15.1,16.5,15.1h1.3c0.6,0,1,0.5,1,1v7.5l9-8.3
			c0.2-0.2,0.4-0.3,0.7-0.3H32c0.6,0,1,0.5,1,1s-0.5,1-1,1h-0.9l-10.5,9.6C20.4,49,20.1,49.1,19.9,49.1z"/>
	</g>
	<g>
		<g>
			<path class="st0" d="M49.5,59c-8,0-14.5-6-14.5-13.4c0-7.4,6.5-13.4,14.5-13.4c8,0,14.5,6,14.5,13.4C64,53,57.5,59,49.5,59z
				 M49.5,34.3c-6.8,0-12.4,5.1-12.4,11.3S42.6,57,49.5,57s12.4-5.1,12.4-11.3S56.3,34.3,49.5,34.3z"/>
		</g>
		<g>
			<path class="st0" d="M49.5,52.9c-0.6,0-1-0.5-1-1V39.4c0-0.6,0.5-1,1-1s1,0.5,1,1v12.4C50.5,52.4,50.1,52.9,49.5,52.9z"/>
		</g>
		<g>
			<path class="st0" d="M56.2,46.7H42.8c-0.6,0-1-0.5-1-1c0-0.6,0.5-1,1-1h13.5c0.6,0,1,0.5,1,1C57.3,46.2,56.8,46.7,56.2,46.7z"/>
		</g>
	</g>
</g>
</svg>
