<?xml version="1.0" encoding="utf-8"?>
<!-- Generator: Adobe Illustrator 19.0.0, SVG Export Plug-In . SVG Version: 6.00 Build 0)  -->
<svg version="1.1" id="icons" xmlns="http://www.w3.org/2000/svg" xmlns:xlink="http://www.w3.org/1999/xlink" x="0px" y="0px"
	 viewBox="24 -24 64 64" style="enable-background:new 24 -24 64 64;" xml:space="preserve">
<path d="M81.8-16.5H30.2c-3.4,0-6.2,3-6.2,6.7v35.5c0,3.7,2.8,6.7,6.2,6.7h51.6c3.4,0,6.2-3,6.2-6.7V-9.7
	C88-13.5,85.2-16.5,81.8-16.5z M81.6-12.7L56,10.3l-25.6-23C30.4-12.7,81.6-12.7,81.6-12.7z M84.2,25.7c0,1.6-1.1,3-2.4,3H30.2
	c-1.3,0-2.4-1.3-2.4-3V-9.7c0-0.1,0-0.2,0-0.3l27,24.3c0.4,0.3,0.8,0.5,1.3,0.5s0.9-0.2,1.3-0.5l27-24.3c0,0.1,0,0.2,0,0.3v35.4
	H84.2z"/>
</svg>
