<?xml version="1.0" encoding="utf-8"?>
<!-- Generator: Adobe Illustrator 19.0.0, SVG Export Plug-In . SVG Version: 6.00 Build 0)  -->
<svg version="1.1" id="icons" xmlns="http://www.w3.org/2000/svg" xmlns:xlink="http://www.w3.org/1999/xlink" x="0px" y="0px"
	 viewBox="0 0 64 64" style="enable-background:new 0 0 64 64;" xml:space="preserve">
<style type="text/css">
	.st0{fill:#231F20;}
</style>
<path class="st0" d="M57.8,7.5H6.2c-3.4,0-6.2,3-6.2,6.7v35.5c0,3.7,2.8,6.7,6.2,6.7h51.6c3.4,0,6.2-3,6.2-6.7V14.3
	C64,10.5,61.2,7.5,57.8,7.5z M57.6,11.3L32,34.3l-25.6-23H57.6z M60.2,49.7c0,1.6-1.1,3-2.4,3H6.2c-1.3,0-2.4-1.3-2.4-3V14.3
	c0-0.1,0-0.2,0-0.3l27,24.3c0.4,0.3,0.8,0.5,1.3,0.5s0.9-0.2,1.3-0.5l27-24.3c0,0.1,0,0.2,0,0.3V49.7z"/>
</svg>
