<?xml version="1.0" encoding="utf-8"?>
<!-- Generator: Adobe Illustrator 19.0.0, SVG Export Plug-In . SVG Version: 6.00 Build 0)  -->
<svg version="1.1" id="Layer_1" xmlns="http://www.w3.org/2000/svg" xmlns:xlink="http://www.w3.org/1999/xlink" x="0px" y="0px"
	 viewBox="24 -24 64 64" style="enable-background:new 24 -24 64 64;" xml:space="preserve">
<path d="M87.4,35.7l-16.7-15c4-4.6,6.4-10.6,6.5-17.2c0-14.7-12-26.6-26.6-26.6C35.9-23.1,24-11.2,24,3.4C24,18.1,35.9,30,50.6,30
	c6.6,0,12.7-2.5,17.3-6.5l16.8,15.1c0.3,0.3,0.8,0.5,1.3,0.5s1.1-0.2,1.5-0.6C88.3,37.7,88.2,36.4,87.4,35.7z M28,3.4
	C28-9,38.1-19.1,50.6-19.1c12.4,0,22.6,10,22.6,22.5S63.1,26,50.6,26S28,15.8,28,3.4z"/>
</svg>
