<?xml version="1.0" encoding="utf-8"?>
<!-- Generator: Adobe Illustrator 19.0.0, SVG Export Plug-In . SVG Version: 6.00 Build 0)  -->
<svg version="1.1" id="icons" xmlns="http://www.w3.org/2000/svg" xmlns:xlink="http://www.w3.org/1999/xlink" x="0px" y="0px"
	 viewBox="24 -24 64 64" style="enable-background:new 24 -24 64 64;" xml:space="preserve">
<g>
	<g>
		<path d="M43.9,25.1c-0.1,0-0.3,0-0.4-0.1c-0.4-0.2-0.6-0.5-0.6-1v-8.9h-0.3C32.3,15.2,24,7.5,24-1.9S32.3-19,42.5-19H64
			c10.2,0,18.5,7.7,18.5,17.1c0,2.3-0.5,4.5-1.4,6.6c-0.2,0.5-0.9,0.7-1.4,0.5s-0.8-0.9-0.5-1.4C80,2,80.5,0,80.5-2
			c0-8.2-7.3-15-16.4-15H42.5c-9,0-16.4,6.8-16.4,15.1s7.4,15.1,16.5,15.1h1.3c0.6,0,1,0.5,1,1v7.5l9-8.3c0.2-0.2,0.4-0.3,0.7-0.3
			H56c0.6,0,1,0.5,1,1s-0.5,1-1,1h-0.9l-10.5,9.6C44.4,25,44.1,25.1,43.9,25.1z"/>
	</g>
	<g>
		<g>
			<path d="M73.5,35c-8,0-14.5-6-14.5-13.4S65.5,8.2,73.5,8.2S88,14.2,88,21.6S81.5,35,73.5,35z M73.5,10.3
				c-6.8,0-12.4,5.1-12.4,11.3S66.6,33,73.5,33s12.4-5.1,12.4-11.3S80.3,10.3,73.5,10.3z"/>
		</g>
		<path d="M80.3,20.7h-5.8v-5.3c0-0.5-0.5-1-1-1s-1,0.4-1,1v5.3h-5.7c-0.5,0-1,0.4-1,1c0,0.5,0.4,1,1,1h5.7v5.2c0,0.5,0.4,1,1,1
			s1-0.5,1-1.1v-5.1h5.7c0.6,0,1.1-0.5,1.1-1S80.9,20.7,80.3,20.7z"/>
	</g>
</g>
</svg>
