<?xml version="1.0" encoding="utf-8"?>
<!-- Generator: Adobe Illustrator 19.0.0, SVG Export Plug-In . SVG Version: 6.00 Build 0)  -->
<svg version="1.1" id="icons" xmlns="http://www.w3.org/2000/svg" xmlns:xlink="http://www.w3.org/1999/xlink" x="0px" y="0px"
	 viewBox="24 -24 64 64" style="enable-background:new 24 -24 64 64;" xml:space="preserve">
<g>
	<g>
		<path d="M56,40C38.4,40,24,25.6,24,8s14.4-32,32-32S88-9.6,88,8S73.6,40,56,40z M56-21C40-21,27-8,27,8s13,29,29,29S85,24,85,8
			S72-21,56-21z"/>
	</g>
	<path d="M68.9,18.6L58.2,7.9L68.8-2.6c0.6-0.6,0.6-1.6,0-2.2s-1.6-0.6-2.2,0L56.1,5.7L45.4-4.9c-0.6-0.6-1.6-0.6-2.2,0
		c-0.6,0.6-0.6,1.6,0,2.2L53.8,8L43.1,18.7c-0.6,0.6-0.6,1.6,0,2.2c0.3,0.3,0.7,0.4,1.1,0.4c0.4,0,0.8-0.2,1.1-0.5L56,10.1
		l10.7,10.8c0.3,0.3,0.7,0.4,1.1,0.4c0.3,0,0.7-0.2,1.1-0.5C69.5,20.2,69.5,19.2,68.9,18.6z"/>
</g>
</svg>
