<?xml version="1.0" encoding="utf-8"?>
<!-- Generator: Adobe Illustrator 19.0.0, SVG Export Plug-In . SVG Version: 6.00 Build 0)  -->
<svg version="1.1" id="icons" xmlns="http://www.w3.org/2000/svg" xmlns:xlink="http://www.w3.org/1999/xlink" x="0px" y="0px"
	 viewBox="0 0 64 64" style="enable-background:new 0 0 64 64;" xml:space="preserve">
<style type="text/css">
	.st0{fill:#231F20;}
</style>
<g>
	<path class="st0" d="M32,22.5c-6.3,0-11.5,5.1-11.5,11.5S25.7,45.4,32,45.4c6.3,0,11.5-5.1,11.5-11.5S38.3,22.5,32,22.5z M32,41.9
		c-4.4,0-7.9-3.6-7.9-7.9c0-4.4,3.6-7.9,7.9-7.9s7.9,3.6,7.9,7.9C39.9,38.3,36.4,41.9,32,41.9z"/>
	<path class="st0" d="M56.9,16.1H46.3L39,9.4c-0.3-0.3-0.8-0.5-1.2-0.5H26.2c-0.4,0-0.9,0.2-1.2,0.5l-7.2,6.7H7.1
		c-3.8,0-7.1,3.6-7.1,7.6V48c0,3.9,3.2,7.1,7.1,7.1h49.8c3.9,0,7.1-3.2,7.1-7.1V23.8C64,19.7,60.7,16.1,56.9,16.1z M60.4,48
		c0,2-1.6,3.6-3.6,3.6H7.1c-2,0-3.6-1.6-3.6-3.6V23.8c0-2.1,1.7-4.1,3.6-4.1h11.3c0.1,0,0.2,0,0.3-0.1c0.1,0,0.3,0,0.4-0.1
		c0.1,0,0.2-0.1,0.3-0.2c0.1-0.1,0.2-0.1,0.2-0.1l7.2-6.7h10.2l7.2,6.7c0.1,0.1,0.2,0.1,0.3,0.2c0.1,0.1,0.2,0.1,0.3,0.2
		c0.2,0.1,0.4,0.1,0.7,0.1h11.3c1.8,0,3.6,2,3.6,4.1V48z"/>
</g>
</svg>
