<?xml version="1.0" encoding="utf-8"?>
<!-- Generator: Adobe Illustrator 19.0.0, SVG Export Plug-In . SVG Version: 6.00 Build 0)  -->
<svg version="1.1" id="icons" xmlns="http://www.w3.org/2000/svg" xmlns:xlink="http://www.w3.org/1999/xlink" x="0px" y="0px"
	 viewBox="24 -24 64 64" style="enable-background:new 24 -24 64 64;" xml:space="preserve">
<g>
	<g>
		<path d="M85.5,40c-1,0-1.9-0.6-2.3-1.6c-3.5-9.1-8.5-15.1-14.9-17.9c-6.4-2.8-12.7-1.6-15.5-0.9v14c0,1-0.6,1.9-1.6,2.3
			c-1,0.4-2,0.1-2.7-0.7L24.6,7.6c-0.8-0.9-0.8-2.3,0-3.2l23.9-27.5c0.7-0.8,1.8-1.1,2.7-0.7c1,0.4,1.6,1.3,1.6,2.3v13.1
			c4.5-0.1,13.6,0.6,21.5,7.2C83.4,6.5,88,19.5,88,37.5c0,1.2-0.8,2.2-2,2.4C85.8,40,85.7,40,85.5,40z M29.7,6l18.2,21v-9.2
			c0-1,0.6-1.9,1.5-2.3c0.4-0.2,10.3-4.1,20.8,0.4c4.7,2,8.8,5.4,12.1,10.1C80.8,15.4,77.1,7.5,71.1,2.4C62-5.3,50.8-3.5,50.7-3.5
			c-0.7,0.1-1.4-0.1-2-0.5c-0.6-0.5-0.9-1.2-0.9-1.9v-9L29.7,6z"/>
	</g>
</g>
</svg>
