<?xml version="1.0" encoding="utf-8"?>
<!-- Generator: Adobe Illustrator 19.0.0, SVG Export Plug-In . SVG Version: 6.00 Build 0)  -->
<svg version="1.1" id="Layer_1" xmlns="http://www.w3.org/2000/svg" xmlns:xlink="http://www.w3.org/1999/xlink" x="0px" y="0px"
	 viewBox="0 0 64 64" style="enable-background:new 0 0 64 64;" xml:space="preserve">
<style type="text/css">
	.st0{fill:#231F20;}
</style>
<g>
	<g>
		<path class="st0" d="M32,64c-0.3,0-0.6-0.1-0.8-0.2c-0.3-0.2-7.9-5-15.5-12.8C5.4,40.6,0,29.9,0,20.1C0,7.2,7.8,0.8,15.4,0.2
			C21.6-0.2,28.7,3,32,11.1c3.4-8.2,10.7-11.6,17-11c7.5,0.6,15,6.5,15,18.4c0,21.9-29.8,44.3-31.1,45.3C32.6,63.9,32.3,64,32,64z
			 M16.6,3.2c-0.3,0-0.6,0-0.9,0C9.4,3.8,3,9.2,3,20.1c0,19.8,24,37.2,28.9,40.5c4.9-3.8,29-23.7,29-42.2c0-9.9-6.1-14.9-12.2-15.3
			C42.6,2.6,35.2,6.7,33.5,17c-0.1,0.7-0.8,1.3-1.5,1.3s-1.4-0.5-1.5-1.3C29,7.4,22.4,3.2,16.6,3.2z"/>
	</g>
</g>
</svg>
