<?xml version="1.0" encoding="utf-8"?>
<!-- Generator: Adobe Illustrator 19.0.0, SVG Export Plug-In . SVG Version: 6.00 Build 0)  -->
<svg version="1.1" id="icons" xmlns="http://www.w3.org/2000/svg" xmlns:xlink="http://www.w3.org/1999/xlink" x="0px" y="0px"
	 viewBox="24 -24 64 64" style="enable-background:new 24 -24 64 64;" xml:space="preserve">
<g>
	<g>
		<path d="M39.9,23.9c-0.2,0-0.3,0-0.4-0.1c-0.4-0.2-0.7-0.6-0.7-1.1v-9.6H36c-6.7,0.1-12-5.2-12-11.8V-9.4
			c0-6.6,5.3-11.9,11.9-11.9h26.8c6.6,0,11.9,5.3,11.9,11.9V1.3c0,6.6-5.3,11.9-11.9,11.9H51.1L40.7,23.6
			C40.5,23.8,40.2,23.9,39.9,23.9z M35.9-19c-5.3,0-9.6,4.3-9.6,9.5V1.2c0,5.3,4.3,9.5,9.6,9.5h4c0.6,0,1.2,0.5,1.2,1.2v7.9l8.7-8.7
			c0.2-0.2,0.5-0.3,0.8-0.3h12.1c5.3,0,9.5-4.3,9.5-9.5V-9.4c0.1-5.3-4.2-9.6-9.5-9.6H35.9z"/>
	</g>
	<g>
		<path d="M76.1,37.3c-0.3,0-0.6-0.1-0.8-0.3l-7.7-7.7h-6.2c-4.3,0-7.9-3.5-7.9-7.9c0-0.6,0.5-1.2,1.2-1.2c0.6,0,1.2,0.5,1.2,1.2
			c0,3,2.5,5.5,5.5,5.5h6.7c0.3,0,0.6,0.1,0.8,0.3l6,6V28c0-0.6,0.5-1.2,1.2-1.2h4c3,0,5.5-2.5,5.5-5.5V16c0-3-2.5-5.5-5.5-5.5
			c-0.6,0-1.2-0.5-1.2-1.2c0-0.6,0.5-1.2,1.2-1.2c4.3,0,7.9,3.5,7.9,7.9v5.4c0,4.3-3.5,7.9-7.9,7.9h-2.8v6.9c0,0.5-0.3,0.9-0.7,1.1
			C76.4,37.3,76.3,37.3,76.1,37.3z"/>
	</g>
</g>
</svg>
