<?xml version="1.0" encoding="utf-8"?>
<!-- Generator: Adobe Illustrator 19.0.0, SVG Export Plug-In . SVG Version: 6.00 Build 0)  -->
<svg version="1.1" id="icons" xmlns="http://www.w3.org/2000/svg" xmlns:xlink="http://www.w3.org/1999/xlink" x="0px" y="0px"
	 viewBox="0 0 64 64" style="enable-background:new 0 0 64 64;" xml:space="preserve">
<style type="text/css">
	.st0{fill:#231F20;}
</style>
<g>
	<g>
		<path class="st0" d="M15.9,47.9c-0.2,0-0.3,0-0.4-0.1c-0.4-0.2-0.7-0.6-0.7-1.1v-9.6h-2.8C5.3,37.2,0,31.9,0,25.3V14.6
			C0,8,5.3,2.7,11.9,2.7h26.8c6.6,0,11.9,5.3,11.9,11.9v10.7c0,6.6-5.3,11.9-11.9,11.9H27.1L16.7,47.6
			C16.5,47.8,16.2,47.9,15.9,47.9z M11.9,5c-5.3,0-9.6,4.3-9.6,9.5v10.7c0,5.3,4.3,9.5,9.6,9.5h4c0.6,0,1.2,0.5,1.2,1.2v7.9l8.7-8.7
			c0.2-0.2,0.5-0.3,0.8-0.3h12.1c5.3,0,9.5-4.3,9.5-9.5V14.6C48.3,9.3,44,5,38.7,5H11.9z"/>
	</g>
	<g>
		<path class="st0" d="M52.1,61.3c-0.3,0-0.6-0.1-0.8-0.3l-7.7-7.7h-6.2c-4.3,0-7.9-3.5-7.9-7.9c0-0.6,0.5-1.2,1.2-1.2
			c0.6,0,1.2,0.5,1.2,1.2c0,3,2.5,5.5,5.5,5.5h6.7c0.3,0,0.6,0.1,0.8,0.3l6,6v-5.2c0-0.6,0.5-1.2,1.2-1.2h4c3,0,5.5-2.5,5.5-5.5V40
			c0-3-2.5-5.5-5.5-5.5c-0.6,0-1.2-0.5-1.2-1.2c0-0.6,0.5-1.2,1.2-1.2c4.3,0,7.9,3.5,7.9,7.9v5.4c0,4.3-3.5,7.9-7.9,7.9h-2.8v6.9
			c0,0.5-0.3,0.9-0.7,1.1C52.4,61.3,52.3,61.3,52.1,61.3z"/>
	</g>
</g>
</svg>
