<?xml version="1.0" encoding="utf-8"?>
<!-- Generator: Adobe Illustrator 19.0.0, SVG Export Plug-In . SVG Version: 6.00 Build 0)  -->
<svg version="1.1" id="icons" xmlns="http://www.w3.org/2000/svg" xmlns:xlink="http://www.w3.org/1999/xlink" x="0px" y="0px"
	 viewBox="0 0 64 64" style="enable-background:new 0 0 64 64;" xml:space="preserve">
<style type="text/css">
	.st0{fill:#231F20;}
</style>
<g>
	<g>
		<path class="st0" d="M61.5,64c-1,0-1.9-0.6-2.3-1.6c-3.5-9.1-8.5-15.1-14.9-17.9c-6.4-2.8-12.7-1.6-15.5-0.9v14
			c0,1-0.6,1.9-1.6,2.3c-1,0.4-2,0.1-2.7-0.7L0.6,31.6c-0.8-0.9-0.8-2.3,0-3.2L24.5,0.9c0.7-0.8,1.8-1.1,2.7-0.7
			c1,0.4,1.6,1.3,1.6,2.3v13.1c4.5-0.1,13.6,0.6,21.5,7.2C59.4,30.5,64,43.5,64,61.5c0,1.2-0.8,2.2-2,2.4C61.8,64,61.7,64,61.5,64z
			 M5.7,30l18.2,21v-9.2c0-1,0.6-1.9,1.5-2.3c0.4-0.2,10.3-4.1,20.8,0.4c4.7,2,8.8,5.4,12.1,10.1c-1.5-10.6-5.2-18.5-11.2-23.6
			c-9.1-7.7-20.3-5.9-20.4-5.9c-0.7,0.1-1.4-0.1-2-0.5c-0.6-0.5-0.9-1.2-0.9-1.9V9.1L5.7,30z"/>
	</g>
</g>
</svg>
