<?xml version="1.0" encoding="utf-8"?>
<!-- Generator: Adobe Illustrator 19.0.0, SVG Export Plug-In . SVG Version: 6.00 Build 0)  -->
<svg version="1.1" id="Layer_1" xmlns="http://www.w3.org/2000/svg" xmlns:xlink="http://www.w3.org/1999/xlink" x="0px" y="0px"
	 viewBox="0 0 64 64" style="enable-background:new 0 0 64 64;" xml:space="preserve">
<style type="text/css">
	.st0{fill:#221F1F;}
</style>
<g>
	<g>
		<path class="st0" d="M26.6,54C11.9,54,0,42.1,0,27.4C0,12.8,11.9,0.9,26.6,0.9c14.6,0,26.6,11.9,26.6,26.6
			C53.1,42.1,41.2,54,26.6,54z M26.6,4.9C14.1,4.9,4,15,4,27.4S14.1,50,26.6,50s22.6-10.1,22.6-22.6S39,4.9,26.6,4.9z"/>
	</g>
	<g>
		<path class="st0" d="M62,63.1c-0.5,0-1-0.2-1.3-0.5L42.6,46.3c-0.8-0.7-0.9-2-0.1-2.8c0.7-0.8,2-0.9,2.8-0.1l18.1,16.3
			c0.8,0.7,0.9,2,0.1,2.8C63.1,62.9,62.5,63.1,62,63.1z"/>
	</g>
</g>
</svg>
