<?xml version="1.0" encoding="utf-8"?>
<!-- Generator: Adobe Illustrator 19.0.0, SVG Export Plug-In . SVG Version: 6.00 Build 0)  -->
<svg version="1.1" id="icons" xmlns="http://www.w3.org/2000/svg" xmlns:xlink="http://www.w3.org/1999/xlink" x="0px" y="0px"
	 viewBox="24 -24 64 64" style="enable-background:new 24 -24 64 64;" xml:space="preserve">
<path d="M80.3,22.3l-14.4-4.8v-6c4.5-3.5,7.5-9.4,7.5-15.9c0-10.8-8-19.6-17.8-19.6S37.8-15.2,37.8-4.4c0,6.9,3.3,13,8.3,16.5v5.5
	l-14.4,4.7c-4.6,1.5-7.7,5.6-7.7,10.2V40h64v-7.5C88,27.9,84.9,23.8,80.3,22.3z M55.6-20c6.6,0,12.1,5.2,13.5,12.2
	c-4.2,0.6-6.8-0.7-9.3-4.8L58-15.5l-1.7,3c-1.4,2.4-6.2,4.6-10.2,4.6c-1.4,0-2.6-0.2-3.8-0.6C43.9-15.1,49.2-20,55.6-20z M41.8-4.4
	C41.8-4.5,41.8-4.5,41.8-4.4c1.4,0.3,2.8,0.5,4.3,0.5c3.8,0,8.7-1.6,11.8-4.4c2.5,3.1,5.5,4.6,9.3,4.6c0.7,0,1.4-0.1,2.2-0.2
	C69.1,4.4,63.1,11,55.6,11C48,11.1,41.8,4.1,41.8-4.4z M84,36H28v-3.5c0-2.8,2-5.4,4.9-6.4l17.2-5.7v-6.3c1.7,0.6,3.6,1,5.5,1
	c2.2,0,4.3-0.5,6.3-1.3v6.6l17.2,5.7c2.9,1,4.9,3.5,4.9,6.4C84,32.5,84,36,84,36z"/>
</svg>
