<?xml version="1.0" encoding="utf-8"?>
<!-- Generator: Adobe Illustrator 19.0.0, SVG Export Plug-In . SVG Version: 6.00 Build 0)  -->
<svg version="1.1" id="icons" xmlns="http://www.w3.org/2000/svg" xmlns:xlink="http://www.w3.org/1999/xlink" x="0px" y="0px"
	 viewBox="24 -24 64 64" style="enable-background:new 24 -24 64 64;" xml:space="preserve">
<g>
	<path d="M61.5-2.3H34c-1,0-1.8,0.8-1.8,1.8S33,1.3,34,1.3h27.5c1,0,1.8-0.8,1.8-1.8S62.5-2.3,61.5-2.3z"/>
	<path d="M86-9.1c-1-0.5-2.2-0.5-3.3,0.2L71.5-1.6V-9c0-3.4-2-6-4.5-6H28.5C26-15.1,24-12.5,24-9.1V25c0,3.4,2,6,4.5,6H67
		c2.5,0,4.5-2.7,4.5-6v-7.4l11.2,7.3c0.6,0.4,1.2,0.6,1.9,0.6c0.5,0,1-0.1,1.4-0.4c1.3-0.7,2-2.3,2-4.4V-4.8C88-6.9,87.3-8.5,86-9.1
		z M68,25.1c0,1.6-0.7,2.5-1,2.5H28.5c-0.2,0-1-0.9-1-2.5V-9.1c0-1.6,0.7-2.5,1-2.5H67c0.2,0,1,0.9,1,2.5V25.1z M84.4,20.8
		c0,0.4,0,0.7-0.1,0.9l-12.8-8.3V2.6l12.8-8.3c0.1,0.2,0.1,0.5,0.1,0.9V20.8z"/>
</g>
</svg>
