<?xml version="1.0" encoding="utf-8"?>
<!-- Generator: Adobe Illustrator 19.0.0, SVG Export Plug-In . SVG Version: 6.00 Build 0)  -->
<svg version="1.1" id="icons" xmlns="http://www.w3.org/2000/svg" xmlns:xlink="http://www.w3.org/1999/xlink" x="0px" y="0px"
	 viewBox="0 0 64 64" style="enable-background:new 0 0 64 64;" xml:space="preserve">
<style type="text/css">
	.st0{fill:#231F20;}
</style>
<g>
	<path class="st0" d="M37.5,21.7H10c-1,0-1.8,0.8-1.8,1.8c0,1,0.8,1.8,1.8,1.8h27.5c1,0,1.8-0.8,1.8-1.8
		C39.3,22.5,38.5,21.7,37.5,21.7z"/>
	<path class="st0" d="M62,14.9c-1-0.5-2.2-0.5-3.3,0.2l-11.2,7.3v-7.4c0-3.4-2-6-4.5-6H4.5C2,8.9,0,11.5,0,14.9v34.1
		c0,3.4,2,6,4.5,6H43c2.5,0,4.5-2.7,4.5-6v-7.4l11.2,7.3c0.6,0.4,1.2,0.6,1.9,0.6c0.5,0,1-0.1,1.4-0.4c1.3-0.7,2-2.3,2-4.4V19.2
		C64,17.1,63.3,15.5,62,14.9z M44,49.1c0,1.6-0.7,2.5-1,2.5H4.5c-0.2,0-1-0.9-1-2.5V14.9c0-1.6,0.7-2.5,1-2.5H43c0.2,0,1,0.9,1,2.5
		V49.1z M60.4,44.8c0,0.4,0,0.7-0.1,0.9l-12.8-8.3V26.6l12.8-8.3c0.1,0.2,0.1,0.5,0.1,0.9V44.8z"/>
</g>
</svg>
